<svg width="44" height="39" viewBox="0 0 44 39" fill="none" xmlns="http://www.w3.org/2000/svg">
<path d="M39.5275 0.418426C41.4584 0.418426 43.0923 2.05229 43.0923 3.98323V27.7486C43.0923 29.7538 41.4584 31.3134 39.5275 31.3134H25.2683L26.4566 34.8782H31.8038C32.7692 34.8782 33.5862 35.6951 33.5862 36.6606C33.5862 37.7003 32.7692 38.443 31.8038 38.443H11.6032C10.5635 38.443 9.8208 37.7003 9.8208 36.6606C9.8208 35.6951 10.5635 34.8782 11.6032 34.8782H16.9504L18.1387 31.3134H3.87946C1.87426 31.3134 0.314655 29.7538 0.314655 27.7486V3.98323C0.314655 2.05229 1.87426 0.418426 3.87946 0.418426H39.5275ZM38.3392 26.5603V5.1715H5.06773V26.5603H38.3392Z" fill="#457CD9"/>
</svg>
